<mxfile host="app.diagrams.net" modified="2024-05-31T22:06:47.697Z" agent="Mozilla/5.0 (Windows NT 10.0; Win64; x64; rv:126.0) Gecko/20100101 Firefox/126.0" etag="_xs1WeRoffYtT3V7f_qS" version="24.4.13" type="device">
  <diagram name="Seite-1" id="Q7jdTONi3VRQE_ngvmfD">
    <mxGraphModel dx="1434" dy="746" grid="1" gridSize="10" guides="1" tooltips="1" connect="1" arrows="1" fold="1" page="1" pageScale="1" pageWidth="827" pageHeight="1169" math="0" shadow="0">
      <root>
        <mxCell id="0" />
        <mxCell id="1" parent="0" />
        <mxCell id="cXmA1vXMNDRmyHv47fBp-3" style="edgeStyle=orthogonalEdgeStyle;rounded=0;orthogonalLoop=1;jettySize=auto;html=1;entryX=1;entryY=0.5;entryDx=0;entryDy=0;" edge="1" parent="1" target="cXmA1vXMNDRmyHv47fBp-4">
          <mxGeometry relative="1" as="geometry">
            <mxPoint x="560" y="450" as="targetPoint" />
            <mxPoint x="710" y="360" as="sourcePoint" />
            <Array as="points">
              <mxPoint x="710" y="480" />
            </Array>
          </mxGeometry>
        </mxCell>
        <mxCell id="cXmA1vXMNDRmyHv47fBp-16" value="" style="edgeStyle=orthogonalEdgeStyle;rounded=0;orthogonalLoop=1;jettySize=auto;html=1;" edge="1" parent="1" source="cXmA1vXMNDRmyHv47fBp-2" target="cXmA1vXMNDRmyHv47fBp-15">
          <mxGeometry relative="1" as="geometry" />
        </mxCell>
        <mxCell id="cXmA1vXMNDRmyHv47fBp-2" value="Quantizer" style="whiteSpace=wrap;html=1;aspect=fixed;" vertex="1" parent="1">
          <mxGeometry x="520" y="320" width="80" height="80" as="geometry" />
        </mxCell>
        <mxCell id="cXmA1vXMNDRmyHv47fBp-8" style="edgeStyle=orthogonalEdgeStyle;rounded=0;orthogonalLoop=1;jettySize=auto;html=1;entryX=0.5;entryY=1;entryDx=0;entryDy=0;" edge="1" parent="1" source="cXmA1vXMNDRmyHv47fBp-4" target="cXmA1vXMNDRmyHv47fBp-6">
          <mxGeometry relative="1" as="geometry" />
        </mxCell>
        <mxCell id="cXmA1vXMNDRmyHv47fBp-4" value="z&lt;sup&gt;-1&lt;/sup&gt;" style="whiteSpace=wrap;html=1;aspect=fixed;" vertex="1" parent="1">
          <mxGeometry x="360" y="440" width="80" height="80" as="geometry" />
        </mxCell>
        <mxCell id="cXmA1vXMNDRmyHv47fBp-7" style="edgeStyle=orthogonalEdgeStyle;rounded=0;orthogonalLoop=1;jettySize=auto;html=1;" edge="1" parent="1" source="cXmA1vXMNDRmyHv47fBp-6" target="cXmA1vXMNDRmyHv47fBp-2">
          <mxGeometry relative="1" as="geometry" />
        </mxCell>
        <mxCell id="cXmA1vXMNDRmyHv47fBp-6" value="+" style="ellipse;whiteSpace=wrap;html=1;aspect=fixed;" vertex="1" parent="1">
          <mxGeometry x="170" y="345" width="30" height="30" as="geometry" />
        </mxCell>
        <mxCell id="cXmA1vXMNDRmyHv47fBp-9" value="&lt;h1 style=&quot;margin-top: 0px;&quot;&gt;First Order Sigma Delta&lt;br&gt;&lt;/h1&gt;&lt;p&gt;&lt;font color=&quot;#ff0000&quot;&gt;Caveat: This is just a draft!!&lt;/font&gt;&lt;br&gt;&lt;/p&gt;" style="text;html=1;whiteSpace=wrap;overflow=hidden;rounded=0;" vertex="1" parent="1">
          <mxGeometry x="20" y="180" width="350" height="80" as="geometry" />
        </mxCell>
        <mxCell id="cXmA1vXMNDRmyHv47fBp-11" style="edgeStyle=orthogonalEdgeStyle;rounded=0;orthogonalLoop=1;jettySize=auto;html=1;entryX=0;entryY=0.5;entryDx=0;entryDy=0;" edge="1" parent="1" source="cXmA1vXMNDRmyHv47fBp-10" target="cXmA1vXMNDRmyHv47fBp-6">
          <mxGeometry relative="1" as="geometry" />
        </mxCell>
        <mxCell id="cXmA1vXMNDRmyHv47fBp-10" value="X(z)" style="text;html=1;align=center;verticalAlign=middle;whiteSpace=wrap;rounded=0;" vertex="1" parent="1">
          <mxGeometry x="60" y="345" width="60" height="30" as="geometry" />
        </mxCell>
        <mxCell id="cXmA1vXMNDRmyHv47fBp-12" value="Y(z)" style="text;html=1;align=center;verticalAlign=middle;whiteSpace=wrap;rounded=0;" vertex="1" parent="1">
          <mxGeometry x="740" y="345" width="60" height="30" as="geometry" />
        </mxCell>
        <mxCell id="cXmA1vXMNDRmyHv47fBp-17" value="" style="edgeStyle=orthogonalEdgeStyle;rounded=0;orthogonalLoop=1;jettySize=auto;html=1;" edge="1" parent="1" source="cXmA1vXMNDRmyHv47fBp-14" target="cXmA1vXMNDRmyHv47fBp-15">
          <mxGeometry relative="1" as="geometry" />
        </mxCell>
        <mxCell id="cXmA1vXMNDRmyHv47fBp-14" value="e(z)" style="text;html=1;align=center;verticalAlign=middle;whiteSpace=wrap;rounded=0;" vertex="1" parent="1">
          <mxGeometry x="630" y="211" width="60" height="30" as="geometry" />
        </mxCell>
        <mxCell id="cXmA1vXMNDRmyHv47fBp-18" value="" style="edgeStyle=orthogonalEdgeStyle;rounded=0;orthogonalLoop=1;jettySize=auto;html=1;" edge="1" parent="1" source="cXmA1vXMNDRmyHv47fBp-15" target="cXmA1vXMNDRmyHv47fBp-12">
          <mxGeometry relative="1" as="geometry" />
        </mxCell>
        <mxCell id="cXmA1vXMNDRmyHv47fBp-15" value="+" style="ellipse;whiteSpace=wrap;html=1;aspect=fixed;" vertex="1" parent="1">
          <mxGeometry x="645" y="345" width="30" height="30" as="geometry" />
        </mxCell>
        <mxCell id="cXmA1vXMNDRmyHv47fBp-19" value="-" style="text;html=1;align=center;verticalAlign=middle;whiteSpace=wrap;rounded=0;" vertex="1" parent="1">
          <mxGeometry x="198" y="375" width="20" height="30" as="geometry" />
        </mxCell>
      </root>
    </mxGraphModel>
  </diagram>
</mxfile>
